<?xml version="1.0" encoding="utf-8"?>
<svg version="1.1" xmlns:xlink="http://www.w3.org/1999/xlink" width="12px" height="20px" xmlns="http://www.w3.org/2000/svg">
  <g transform="matrix(1 0 0 1 -15 -19 )">
    <path d="M 4.5 11.975446428571427  C 4.984375 12.087053571428573  5.484375 12.142857142857144  6 12.142857142857144  C 6.515625 12.142857142857144  7.015625000000001 12.087053571428573  7.5 11.975446428571427  L 7.5 19.285714285714285  C 7.5 19.479166666666664  7.425781250000001 19.64657738095238  7.27734375 19.787946428571427  C 7.12890625 19.929315476190478  6.953125 20  6.75 20  L 5.25 20  C 5.046875 20  4.87109375 19.929315476190478  4.72265625 19.787946428571427  C 4.57421875 19.64657738095238  4.5 19.479166666666664  4.5 19.285714285714285  L 4.5 11.975446428571427  Z M 1.7578125 1.674107142857142  C 2.9296875000000004 0.558035714285714  4.34375 0  6 0  C 7.65625 0  9.0703125 0.558035714285714  10.2421875 1.674107142857142  C 11.4140625 2.790178571428572  12 4.136904761904761  12 5.7142857142857135  C 12 7.291666666666665  11.4140625 8.638392857142858  10.2421875 9.754464285714286  C 9.0703125 10.870535714285714  7.65625 11.428571428571427  6 11.428571428571427  C 4.34375 11.428571428571427  2.9296875000000004 10.870535714285714  1.7578125 9.754464285714286  C 0.5859375 8.638392857142858  0 7.291666666666665  0 5.7142857142857135  C 0 4.136904761904761  0.5859375 2.790178571428572  1.7578125 1.674107142857142  Z M 3.615234375 3.443080357142858  C 4.275390625 2.8143601190476164  5.070312500000001 2.5  6 2.5  C 6.109375 2.5  6.19921875 2.466517857142858  6.26953125 2.399553571428572  C 6.33984375 2.332589285714286  6.375 2.2470238095238093  6.375 2.142857142857142  C 6.375 2.0386904761904745  6.33984375 1.953125  6.26953125 1.886160714285714  C 6.19921875 1.819196428571428  6.109375 1.785714285714286  6 1.785714285714286  C 4.859375 1.785714285714286  3.88671875 2.1688988095238093  3.08203125 2.935267857142858  C 2.27734375 3.7016369047619024  1.875 4.627976190476188  1.875 5.7142857142857135  C 1.875 5.81845238095238  1.91015625 5.904017857142858  1.98046875 5.970982142857142  C 2.05078125 6.037946428571428  2.140625 6.071428571428572  2.25 6.071428571428572  C 2.359375 6.071428571428572  2.44921875 6.037946428571428  2.51953125 5.970982142857142  C 2.58984375 5.904017857142858  2.625 5.81845238095238  2.625 5.7142857142857135  C 2.625 4.828869047619047  2.955078125 4.071800595238095  3.615234375 3.443080357142858  Z " fill-rule="nonzero" fill="#000000" stroke="none" transform="matrix(1 0 0 1 15 19 )" />
  </g>
</svg>